# xmcd
# 
# Track frame offsets:
#     150
#     17973
#     36941
#     60941
# 
# Disc length: 1044
# 
# Revision: 0
# Processed by: cddbd v1.5.2PL0 Copyright (c) Steve Scherf et al.
# Submitted via: BonkEnc v1.0.15
# 
DISCID=2a041204
DTITLE=Pino Fusaro - Brillar de Luna
DYEAR=0
DGENRE=
TTITLE0=Radioversion
TTITLE1=Klub Junkies Single Edit
TTITLE2=Klub Junkies Ibizaq Mix
TTITLE3=Radioinstrumental
EXTD=
EXTT0=
EXTT1=
EXTT2=
EXTT3=
PLAYORDER=
